<?xml version="1.0" standalone="no"?>
<!DOCTYPE svg PUBLIC "-//W3C//DTD SVG 20010904//EN"
 "http://www.w3.org/TR/2001/REC-SVG-20010904/DTD/svg10.dtd">
<svg version="1.0" xmlns="http://www.w3.org/2000/svg"
 width="500.000000pt" height="500.000000pt" viewBox="0 0 500.000000 500.000000"
 preserveAspectRatio="xMidYMid meet">
<metadata>
Created by potrace 1.16, written by Peter Selinger 2001-2019
</metadata>
<g transform="translate(0.000000,500.000000) scale(0.100000,-0.100000)"
fill="#000000" stroke="none">
<path d="M3952 2914 c-68 -18 -103 -36 -141 -75 -43 -43 -62 -82 -68 -144 -7
-64 9 -115 50 -161 42 -48 82 -67 237 -108 144 -39 179 -57 194 -100 13 -34
-17 -76 -65 -93 -79 -28 -226 -7 -322 44 -26 15 -49 24 -51 22 -2 -2 -17 -34
-34 -71 l-30 -67 59 -30 c139 -69 355 -82 474 -27 127 58 183 159 155 277 -24
99 -90 141 -306 195 -124 32 -168 57 -172 100 -4 40 29 81 76 94 76 21 192 6
269 -33 18 -10 36 -17 40 -17 4 0 19 28 33 62 14 35 26 66 28 70 5 12 -74 47
-140 63 -79 18 -216 18 -286 -1z"/>
<path d="M650 2500 l0 -420 95 0 95 0 0 256 0 255 210 -255 211 -256 79 0 80
0 0 420 0 420 -95 0 -95 0 -2 -256 -3 -257 -209 257 -210 256 -78 0 -78 0 0
-420z"/>
<path d="M1620 2500 l0 -420 325 0 325 0 0 75 0 75 -230 0 -230 0 0 100 0 100
195 0 195 0 0 75 0 75 -195 0 -195 0 0 95 0 95 220 0 220 0 0 75 0 75 -315 0
-315 0 0 -420z"/>
<path d="M2343 2908 c2 -7 64 -196 138 -420 l133 -408 102 0 102 0 94 280 c51
154 95 280 98 280 4 0 47 -125 96 -277 l90 -278 104 0 104 0 137 418 136 417
-91 0 -92 0 -93 -287 c-51 -159 -96 -291 -100 -296 -4 -4 -50 126 -102 288
l-94 295 -89 -2 -89 -3 -92 -276 c-51 -152 -97 -284 -102 -292 -6 -12 -35 66
-103 278 l-94 295 -99 0 c-75 0 -98 -3 -94 -12z"/>
</g>
</svg>
